<?xml version="1.0" standalone="no"?>
<!DOCTYPE svg PUBLIC "-//W3C//DTD SVG 20010904//EN"
 "http://www.w3.org/TR/2001/REC-SVG-20010904/DTD/svg10.dtd">
<svg version="1.0" xmlns="http://www.w3.org/2000/svg"
 width="80.000000pt" height="80.000000pt" viewBox="0 0 80.000000 80.000000"
 preserveAspectRatio="xMidYMid meet">

<g transform="translate(0.000000,80.000000) scale(0.100000,-0.100000)"
fill="#000000" stroke="none">
<path d="M190 531 c-14 -4 -26 -15 -28 -24 -3 -15 6 -17 72 -17 74 0 76 1 76
25 0 23 -3 25 -47 24 -27 -1 -59 -4 -73 -8z"/>
<path d="M490 515 c0 -24 2 -25 76 -25 66 0 75 2 72 17 -4 20 -36 31 -100 32
-45 1 -48 -1 -48 -24z"/>
<path d="M133 432 c-26 -4 -30 -24 -8 -42 12 -10 16 -8 25 15 12 32 12 32 -17
27z"/>
<path d="M640 434 c0 -2 5 -15 10 -30 10 -26 11 -26 30 -9 27 25 25 32 -10 37
-16 3 -30 3 -30 2z"/>
<path d="M210 410 c-29 -29 -17 -40 40 -40 27 0 51 4 55 10 8 13 -31 50 -55
50 -11 0 -29 -9 -40 -20z"/>
<path d="M510 410 c-12 -12 -18 -25 -15 -30 8 -13 102 -13 110 0 8 13 -31 50
-55 50 -11 0 -29 -9 -40 -20z"/>
<path d="M297 306 c-10 -26 52 -66 103 -66 51 0 113 40 103 66 -6 16 -39 19
-48 4 -3 -5 -28 -10 -55 -10 -27 0 -52 5 -55 10 -9 15 -42 12 -48 -4z"/>
<path d="M10 76 c0 -28 13 -47 41 -61 23 -12 87 -15 349 -15 336 0 368 4 384
45 17 46 30 45 -384 45 -330 0 -390 -2 -390 -14z"/>
</g>
</svg>
